<?xml version="1.0" encoding="UTF-8" standalone="no"?>
<svg
   xmlns:dc="http://purl.org/dc/elements/1.1/"
   xmlns:cc="http://creativecommons.org/ns#"
   xmlns:rdf="http://www.w3.org/1999/02/22-rdf-syntax-ns#"
   xmlns:svg="http://www.w3.org/2000/svg"
   xmlns="http://www.w3.org/2000/svg"
   xmlns:sodipodi="http://sodipodi.sourceforge.net/DTD/sodipodi-0.dtd"
   xmlns:inkscape="http://www.inkscape.org/namespaces/inkscape"
   id="svg2"
   height="32"
   width="32"
   version="1.1"
   preserveAspectRatio="xMidYMid"
   viewBox="0 0 0.0625 0.062500002"
   inkscape:version="0.48.2 r9819"
   sodipodi:docname="bitcoin-225079.svg">
  <metadata
     id="metadata12">
    <rdf:RDF>
      <cc:Work
         rdf:about="">
        <dc:format>image/svg+xml</dc:format>
        <dc:type
           rdf:resource="http://purl.org/dc/dcmitype/StillImage" />
      </cc:Work>
    </rdf:RDF>
  </metadata>
  <sodipodi:namedview
     pagecolor="#ffffff"
     bordercolor="#666666"
     borderopacity="1"
     objecttolerance="10"
     gridtolerance="10"
     guidetolerance="10"
     inkscape:pageopacity="0"
     inkscape:pageshadow="2"
     inkscape:window-width="837"
     inkscape:window-height="624"
     id="namedview10"
     showgrid="false"
     inkscape:zoom="2.6074563"
     inkscape:cx="69.373739"
     inkscape:cy="-12.496548"
     inkscape:window-x="0"
     inkscape:window-y="0"
     inkscape:window-maximized="0"
     inkscape:current-layer="svg2" />
  <defs
     id="defs4">
    <linearGradient
       id="coin-gradient"
       y2="63.996"
       gradientUnits="userSpaceOnUse"
       x2=".00043946"
       gradientTransform="scale(.99994 1.0001)"
       y1="-.00059564"
       x1=".00043946">
      <stop
         id="stop12"
         stop-color="#f9aa4b"
         offset="0" />
      <stop
         id="stop14"
         stop-color="#f7931a"
         offset="1" />
    </linearGradient>
  </defs>
  <g
     id="g16"
     transform="matrix(.00097667 0 0 .00097655 -4.3292e-7 5.8171e-7)">
    <path
       id="coin"
       d="m63.036 39.741c-4.274 17.143-21.637 27.576-38.782 23.301-17.138-4.274-27.571-21.638-23.295-38.78 4.2719-17.145 21.635-27.579 38.775-23.305 17.144 4.274 27.576 21.64 23.302 38.784z"
       fill="url(#coin-gradient)" />
    <path
       id="symbol"
       d="m 48.310789,21.800524 c 0.637,-4.258 -2.605,-6.547 -7.038,-8.074 l 1.438,-5.7680004 -3.511,-0.875 -1.4,5.6160004 c -0.923,-0.23 -1.871,-0.447 -2.813,-0.662 l 1.41,-5.6530004 -3.509,-0.875 -1.439,5.7660004 c -0.764,-0.174 -1.514,-0.346 -2.242,-0.527 l 0.004,-0.018 -4.842,-1.2090004 -0.934,3.7500004 c 0,0 2.605,0.597 2.55,0.634 1.422,0.355 1.679,1.296 1.636,2.042 l -1.638,6.571 c 0.098,0.025 0.225,0.061 0.365,0.117 -0.117,-0.029 -0.242,-0.061 -0.371,-0.092 l -2.296,9.205 c -0.174,0.432 -0.615,1.08 -1.609,0.834 0.035,0.051 -2.552,-0.637 -2.552,-0.637 l -1.743,4.019 4.569,1.139 c 0.85,0.213 1.683,0.436 2.503,0.646 l -1.453,5.834 3.507,0.875 1.439,-5.772 c 0.958,0.26 1.888,0.5 2.798,0.726 l -1.434,5.745 3.511,0.875 1.453,-5.823 c 5.987,1.133 10.489,0.676 12.384,-4.739 1.527,-4.36 -0.076,-6.875 -3.226,-8.515 2.294,-0.529 4.022,-2.038 4.483,-5.155 z m -8.022,11.249 c -1.085,4.36 -8.426,2.003 -10.806,1.412 l 1.928,-7.729 c 2.38,0.594 10.012,1.77 8.878,6.317 z m 1.086,-11.312 c -0.99,3.966 -7.1,1.951 -9.082,1.457 l 1.748,-7.01 c 1.982,0.494 8.365,1.416 7.334,5.553 z"
       inkscape:connector-curvature="0"
       style="fill:#ffffff" />
  </g>
  <text
     xml:space="preserve"
     style="font-size:0.0078125px;font-style:normal;font-weight:normal;line-height:125%;letter-spacing:0px;word-spacing:0px;fill:#ffffff;fill-opacity:1;stroke:none;font-family:Helvetica;-inkscape-font-specification:Helvetica"
     x="0.022339666"
     y="0.045990724"
     id="text2993"
     sodipodi:linespacing="125%"
     inkscape:transform-center-x="-1.8516575"
     transform="matrix(0.9704791,0.24118525,-0.24118525,0.9704791,0,0)"
     inkscape:transform-center-y="0.61161365"><tspan
       sodipodi:role="line"
       id="tspan2995"
       x="0.022339666"
       y="0.045990724"
       style="font-size:0.01074219px;font-style:normal;font-variant:normal;font-weight:500;font-stretch:normal;fill:#ffffff;font-family:Futura;-inkscape-font-specification:Futura Medium">thread</tspan></text>
</svg>
